<svg width="80" height="64" viewBox="0 0 80 64" fill="none" xmlns="http://www.w3.org/2000/svg">
<g filter="url(#filter0_b_223_218)">
<g filter="url(#filter1_b_223_218)">
<rect x="-3.05176e-05" y="18" width="64" height="24" rx="12" fill="black" fill-opacity="0.05"/>
<rect x="0.499969" y="18.5" width="63" height="23" rx="11.5" stroke="black" stroke-opacity="0.5"/>
</g>
<g filter="url(#filter2_d_223_218)">
<rect x="32" y="14" width="32" height="32" rx="16" fill="white" shape-rendering="crispEdges"/>
<path d="M48 33.75C50.071 33.75 51.75 32.0711 51.75 30C51.75 27.9289 50.071 26.25 48 26.25C45.9289 26.25 44.25 27.9289 44.25 30C44.25 32.0711 45.9289 33.75 48 33.75Z" stroke="black" stroke-linecap="round" stroke-linejoin="round"/>
<path d="M48 24.25V23" stroke="black" stroke-linecap="round" stroke-linejoin="round"/>
<path d="M43.9312 25.9313L43.0499 25.05" stroke="black" stroke-linecap="round" stroke-linejoin="round"/>
<path d="M42.25 30H41" stroke="black" stroke-linecap="round" stroke-linejoin="round"/>
<path d="M43.9312 34.0688L43.0499 34.95" stroke="black" stroke-linecap="round" stroke-linejoin="round"/>
<path d="M48 35.75V37" stroke="black" stroke-linecap="round" stroke-linejoin="round"/>
<path d="M52.0687 34.0688L52.9499 34.95" stroke="black" stroke-linecap="round" stroke-linejoin="round"/>
<path d="M53.75 30H55" stroke="black" stroke-linecap="round" stroke-linejoin="round"/>
<path d="M52.0687 25.9313L52.9499 25.05" stroke="black" stroke-linecap="round" stroke-linejoin="round"/>
<rect x="28" y="10" width="40" height="40" rx="20" stroke="black" stroke-opacity="0.1" stroke-width="8" shape-rendering="crispEdges"/>
</g>
</g>
<defs>
<filter id="filter0_b_223_218" x="-4.00003" y="2" width="80" height="56" filterUnits="userSpaceOnUse" color-interpolation-filters="sRGB">
<feFlood flood-opacity="0" result="BackgroundImageFix"/>
<feGaussianBlur in="BackgroundImageFix" stdDeviation="2"/>
<feComposite in2="SourceAlpha" operator="in" result="effect1_backgroundBlur_223_218"/>
<feBlend mode="normal" in="SourceGraphic" in2="effect1_backgroundBlur_223_218" result="shape"/>
</filter>
<filter id="filter1_b_223_218" x="-8.00003" y="10" width="80" height="40" filterUnits="userSpaceOnUse" color-interpolation-filters="sRGB">
<feFlood flood-opacity="0" result="BackgroundImageFix"/>
<feGaussianBlur in="BackgroundImageFix" stdDeviation="4"/>
<feComposite in2="SourceAlpha" operator="in" result="effect1_backgroundBlur_223_218"/>
<feBlend mode="normal" in="SourceGraphic" in2="effect1_backgroundBlur_223_218" result="shape"/>
</filter>
<filter id="filter2_d_223_218" x="16" y="0" width="64" height="64" filterUnits="userSpaceOnUse" color-interpolation-filters="sRGB">
<feFlood flood-opacity="0" result="BackgroundImageFix"/>
<feColorMatrix in="SourceAlpha" type="matrix" values="0 0 0 0 0 0 0 0 0 0 0 0 0 0 0 0 0 0 127 0" result="hardAlpha"/>
<feOffset dy="2"/>
<feGaussianBlur stdDeviation="4"/>
<feComposite in2="hardAlpha" operator="out"/>
<feColorMatrix type="matrix" values="0 0 0 0 0 0 0 0 0 0 0 0 0 0 0 0 0 0 0.1 0"/>
<feBlend mode="normal" in2="BackgroundImageFix" result="effect1_dropShadow_223_218"/>
<feBlend mode="normal" in="SourceGraphic" in2="effect1_dropShadow_223_218" result="shape"/>
</filter>
</defs>
</svg>
